<svg width="11854" height="11816" viewBox="0 0 11854 11816" fill="none" xmlns="http://www.w3.org/2000/svg">
<g clip-path="url(#clip0_416_588)">
<path d="M3282.53 3132.54H6066.41H8850.29V219.844H6066.41H3282.53H3262.01L250.125 3089.22V3132.54V5870.25V8823.99H3282.53V5870.25V3132.54Z" fill="url(#paint0_linear_416_588)"/>
<path d="M8850.46 3132.63V5870.34V8824.08H6066.58H3282.7V11619.9H6066.58H8707.96L8850.46 11484.3L11642.3 8824.08L11650.3 8816.67V5870.34V3132.63H8850.46Z" fill="url(#paint1_linear_416_588)"/>
<path d="M7073.46 8063.92C6942.73 8063.92 6830.38 8012.85 6736.42 7910.72C6642.45 7808.59 6564.83 7679.9 6503.55 7524.66C6442.27 7369.41 6391.21 7208.04 6350.35 7040.54C6313.58 6873.05 6284.99 6721.89 6264.56 6587.07C6248.22 6448.17 6235.96 6348.08 6227.79 6286.8L6221.66 6268.42C6176.73 6276.59 6135.87 6282.71 6099.1 6286.8C6062.34 6286.8 6029.65 6286.8 6001.06 6286.8H5964.29C5866.24 6482.9 5774.32 6674.91 5688.53 6862.83C5606.82 7050.76 5539.41 7224.38 5486.3 7383.71C5437.28 7543.04 5412.77 7675.81 5412.77 7782.03C5412.77 7863.74 5431.15 7927.06 5467.92 7972C5476.09 7988.34 5480.18 8000.6 5480.18 8008.77C5480.18 8021.02 5474.05 8029.19 5461.79 8033.28C5449.54 8041.45 5433.19 8039.41 5412.77 8027.15C5376 8010.81 5329.02 7998.55 5271.82 7990.38C5214.63 7982.21 5163.56 7969.96 5118.62 7953.62C5024.66 7920.93 4955.21 7863.74 4910.27 7782.03C4869.42 7696.24 4848.99 7594.11 4848.99 7475.63C4848.99 7336.73 4871.46 7179.45 4916.4 7003.78C4965.42 6828.11 5026.7 6648.35 5100.24 6464.51C5173.78 6276.59 5251.4 6096.83 5333.1 5925.25C5418.9 5753.66 5498.56 5598.42 5572.1 5459.52C5645.63 5320.62 5704.87 5210.31 5749.81 5128.61C5762.06 5108.18 5784.53 5067.33 5817.22 5006.05C5853.98 4940.68 5888.71 4875.32 5921.39 4809.95C5954.07 4740.5 5970.42 4687.39 5970.42 4650.62C5970.42 4609.77 5947.95 4601.6 5903.01 4626.11C5837.64 4654.71 5760.02 4709.86 5670.14 4791.57C5580.27 4873.27 5482.22 4965.19 5376 5067.33C5269.78 5165.38 5159.48 5263.42 5045.09 5361.47C4930.7 5455.43 4814.27 5535.1 4695.79 5600.46C4577.32 5661.74 4458.84 5692.38 4340.37 5692.38C4275 5692.38 4211.68 5680.13 4150.4 5655.62C4080.95 5631.1 4046.22 5569.82 4046.22 5471.78C4046.22 5377.81 4072.78 5267.51 4125.89 5140.86C4183.08 5010.13 4252.53 4885.53 4334.24 4767.06C4354.67 4734.37 4379.18 4711.9 4407.78 4699.65C4436.37 4683.31 4458.84 4675.14 4475.18 4675.14C4507.87 4675.14 4524.21 4689.43 4524.21 4718.03C4524.21 4730.29 4518.08 4746.63 4505.82 4767.06C4501.74 4783.4 4495.61 4797.7 4487.44 4809.95C4483.35 4822.21 4481.31 4832.42 4481.31 4840.59C4481.31 4869.19 4495.61 4889.62 4524.21 4901.87C4552.81 4910.04 4583.45 4914.13 4616.13 4914.13C4701.92 4914.13 4814.27 4885.53 4953.17 4828.34C5092.07 4771.14 5241.18 4701.69 5400.51 4619.98C5563.93 4534.19 5725.3 4450.44 5884.62 4368.74C6048.04 4287.03 6199.19 4223.71 6338.1 4178.77C6477 4129.74 6591.39 4113.4 6681.26 4129.74C6738.46 4142 6789.53 4176.73 6834.46 4233.92C6879.4 4291.11 6916.17 4348.31 6944.77 4405.5C6957.02 4434.1 6963.15 4464.74 6963.15 4497.42C6963.15 4538.28 6952.94 4577.09 6932.51 4613.86C6916.17 4650.62 6891.66 4689.43 6858.98 4730.29C6805.87 4807.91 6736.42 4918.21 6650.62 5061.2C6564.83 5200.1 6468.83 5359.43 6362.61 5539.18C6260.47 5718.94 6158.34 5906.86 6056.21 6102.96C6244.13 6066.19 6413.67 5992.66 6564.83 5882.35C6715.99 5772.05 6850.81 5643.36 6969.28 5496.29C7087.75 5349.22 7196.02 5200.1 7294.06 5048.94C7392.11 4897.79 7484.03 4760.93 7569.82 4638.37C7659.7 4515.81 7747.54 4425.93 7833.33 4368.74C7886.44 4327.88 7951.8 4307.46 8029.42 4307.46C8090.7 4307.46 8145.86 4329.93 8194.88 4374.86C8247.99 4415.72 8274.54 4483.13 8274.54 4577.09C8274.54 4703.73 8237.78 4830.38 8164.24 4957.02C8090.7 5079.58 7994.7 5200.1 7876.22 5318.58C7757.75 5432.97 7629.06 5541.23 7490.16 5643.36C7355.34 5741.41 7222.57 5829.24 7091.84 5906.86C6961.11 5984.49 6848.76 6047.81 6754.8 6096.83C6758.89 6117.26 6781.35 6184.67 6822.21 6299.06C6863.06 6413.45 6916.17 6548.26 6981.54 6703.5C7050.99 6854.66 7124.52 7003.78 7202.14 7150.85C7279.77 7297.92 7357.39 7418.44 7435.01 7512.4C7512.63 7602.28 7584.12 7641.09 7649.49 7628.83C7665.83 7624.75 7659.7 7645.17 7631.1 7690.11C7606.59 7730.97 7565.74 7782.03 7508.54 7843.31C7451.35 7900.51 7383.94 7951.57 7306.32 7996.51C7232.78 8041.45 7155.16 8063.92 7073.46 8063.92Z" fill="url(#paint2_linear_416_588)"/>
</g>
<defs>
<linearGradient id="paint0_linear_416_588" x1="1131.64" y1="908.176" x2="4552.88" y2="8822.84" gradientUnits="userSpaceOnUse">
<stop stop-color="#ACAAFF"/>
<stop offset="1" stop-color="#C0E8FF"/>
</linearGradient>
<linearGradient id="paint1_linear_416_588" x1="4140.38" y1="3811.62" x2="7546.9" y2="11584.7" gradientUnits="userSpaceOnUse">
<stop stop-color="#ACAAFF"/>
<stop offset="1" stop-color="#C0E8FF"/>
</linearGradient>
<linearGradient id="paint2_linear_416_588" x1="4479.7" y1="4264.9" x2="7335.36" y2="8801.56" gradientUnits="userSpaceOnUse">
<stop stop-color="#C0E8FF"/>
<stop offset="1" stop-color="#F3ACFF"/>
</linearGradient>
<clipPath id="clip0_416_588">
<rect width="11854" height="11816" fill="white"/>
</clipPath>
</defs>
</svg>
